<svg xmlns="http://www.w3.org/2000/svg" style="display: none;">
  
    <symbol id="icon-time" viewBox="0 0 512 512">
      <path d="m256 51c-113 0-205 92-205 205 0 113 92 205 205 205 113 0 205-92 205-205 0-113-92-205-205-205z m0 369c-91 0-164-73-164-164 0-91 73-164 164-164 91 0 164 73 164 164 0 91-73 164-164 164z m10-266l-30 0 0 122 107 65 15-25-92-55z"/>
    </symbol>
  
    <symbol id="icon-class" viewBox="0 0 512 512">
      <path d="m379 51l-246 0c-22 0-41 19-41 41l0 328c0 22 19 41 41 41l246 0c22 0 41-19 41-41l0-328c0-22-19-41-41-41z m-246 41l103 0 0 164-52-31-51 31z"/>
    </symbol>
  
    <symbol id="icon-date" viewBox="0 0 512 512">
      <path d="m399 92l-20 0 0-20c0-12-9-21-21-21-11 0-20 9-20 21l0 20-164 0 0-20c0-12-9-21-20-21-12 0-21 9-21 21l0 20-20 0c-23 0-41 19-41 41l0 287c0 22 18 41 41 41l286 0c23 0 41-19 41-41l0-287c0-22-18-41-41-41z m0 307c0 12-9 21-20 21l-246 0c-11 0-20-9-20-21l0-204 286 0z m-245-163l41 0 0 40-41 0z m82 0l40 0 0 40-40 0z m81 0l41 0 0 40-41 0z"/>
    </symbol>
  
    <symbol id="icon-location" viewBox="0 0 512 512">
      <path d="m256 51c-79 0-143 64-143 144 0 85 90 203 127 248 9 9 24 9 32 0 37-45 127-163 127-248 0-80-64-144-143-144z m0 195c-28 0-51-23-51-51 0-29 23-52 51-52 28 0 51 23 51 52 0 28-23 51-51 51z"/>
    </symbol>
  
    <symbol id="icon-pause" viewBox="0 0 512 512">
      <path d="m128 405l85 0 0-298-85 0z m171-298l0 298 85 0 0-298z"/>
    </symbol>
  
    <symbol id="icon-play" viewBox="0 0 512 512">
      <path d="m171 107l0 298 234-149z"/>
    </symbol>
  
    <symbol id="icon-search" viewBox="0 0 512 512">
      <path d="m331 299l-17 0-6-6c25-30 39-71 31-114-10-59-59-107-119-114-90-11-166 65-155 155 7 60 55 109 114 119 43 8 84-6 114-31l6 6 0 17 90 90c9 9 23 9 32 0 9-8 9-23 0-31z m-128 0c-53 0-96-43-96-96 0-53 43-96 96-96 53 0 96 43 96 96 0 53-43 96-96 96z"/>
    </symbol>
  
    <symbol id="icon-seat" viewBox="0 0 512 512">
      <path d="m84 386l0 65 64 0 0-65 216 0 0 65 64 0 0-130-344 0z m323-173l64 0 0 65-64 0z m-366 0l64 0 0 65-64 0z m323 65l-216 0 0-173c0-24 20-44 43-44l130 0c23 0 43 20 43 44z"/>
    </symbol>
  
    <symbol id="icon-train" viewBox="0 0 512 512">
      <path d="m251 56c-82 0-164 11-164 82l0 195c0 39 32 71 72 71l-31 31 0 10 46 0 41-41 77 0 41 41 41 0 0-10-31-31c40 0 72-32 72-71l0-195c0-71-74-82-164-82z m-92 308c-17 0-31-14-31-31 0-17 14-31 31-31 17 0 30 14 30 31 0 17-13 31-30 31z m71-144l-102 0 0-82 102 0z m41 0l0-82 103 0 0 82z m72 144c-17 0-31-14-31-31 0-17 14-31 31-31 17 0 31 14 31 31 0 17-14 31-31 31z"/>
    </symbol>
  
</svg>
